<?xml version="1.0" encoding="UTF-8" standalone="no"?>
<!DOCTYPE svg PUBLIC "-//W3C//DTD SVG 1.1//EN" "http://www.w3.org/Graphics/SVG/1.1/DTD/svg11.dtd">
<svg width="100%" height="100%" viewBox="0 0 3000 3000" version="1.1" xmlns="http://www.w3.org/2000/svg" xmlns:xlink="http://www.w3.org/1999/xlink" xml:space="preserve" xmlns:serif="http://www.serif.com/" style="fill-rule:evenodd;clip-rule:evenodd;stroke-linejoin:round;stroke-miterlimit:2;">
    <g transform="matrix(1,0,0,1,-3208,0)">
        <g id="Artboard2" transform="matrix(1,0,0,1,-0.333333,0)">
            <rect x="3208.33" y="0" width="3000" height="3000" style="fill:none;"/>
            <clipPath id="_clip1">
                <rect x="3208.33" y="0" width="3000" height="3000"/>
            </clipPath>
            <g clip-path="url(#_clip1)">
                <g transform="matrix(1,0,0,1,0.333333,0)">
                    <path d="M6208,300C6208,134.425 6073.57,0 5908,0L3508,0C3342.43,0 3208,134.425 3208,300L3208,2700C3208,2865.58 3342.43,3000 3508,3000L5908,3000C6073.57,3000 6208,2865.58 6208,2700L6208,300Z" style="fill:rgb(60,20,208);"/>
                </g>
                <g transform="matrix(1.01253,-0.584587,0.584587,1.01253,2215.54,497.12)">
                    <path d="M2477.4,1181.87C2477.4,1130.18 2435.43,1088.2 2383.73,1088.2L705.579,1088.2C653.88,1088.2 611.907,1130.18 611.907,1181.87L611.907,2165.42C611.907,2217.12 653.88,2259.1 705.579,2259.1L2383.73,2259.1C2435.43,2259.1 2477.4,2217.12 2477.4,2165.42L2477.4,1181.87Z" style="fill:rgb(231,60,60);"/>
                </g>
                <g transform="matrix(0.8392,-0.484512,0.744611,1.2897,2227.23,185.88)">
                    <path d="M724.366,965.669C724.366,937.458 689.166,914.553 645.81,914.553C602.454,914.553 567.255,937.458 567.255,965.669L567.255,2796.73C567.255,2824.95 602.454,2847.85 645.81,2847.85C689.166,2847.85 724.366,2824.95 724.366,2796.73L724.366,965.669Z" style="fill:white;"/>
                </g>
            </g>
        </g>
    </g>
</svg>
