<?xml version="1.0" encoding="UTF-8" standalone="no"?>
<!DOCTYPE svg PUBLIC "-//W3C//DTD SVG 1.1//EN" "http://www.w3.org/Graphics/SVG/1.1/DTD/svg11.dtd">
<svg width="100%" height="100%" viewBox="0 0 3000 3000" version="1.1" xmlns="http://www.w3.org/2000/svg" xmlns:xlink="http://www.w3.org/1999/xlink" xml:space="preserve" xmlns:serif="http://www.serif.com/" style="fill-rule:evenodd;clip-rule:evenodd;stroke-linejoin:round;stroke-miterlimit:2;">
    <g transform="matrix(1,0,0,1,-3208,0)">
        <g id="Artboard2" transform="matrix(1,0,0,1,-0.333333,0)">
            <rect x="3208.33" y="0" width="3000" height="3000" style="fill:none;"/>
            <clipPath id="_clip1">
                <rect x="3208.33" y="0" width="3000" height="3000"/>
            </clipPath>
            <g clip-path="url(#_clip1)">
                <g transform="matrix(1,0,0,1,0.333333,0)">
                    <rect x="3208" y="0" width="3000" height="3000" style="fill:rgb(43,24,73);"/>
                </g>
                <g transform="matrix(0.866025,-0.5,0.5,0.866025,2549.78,684.477)">
                    <path d="M2477.4,1181.87C2477.4,1130.18 2435.43,1088.2 2383.73,1088.2L705.579,1088.2C653.88,1088.2 611.907,1130.18 611.907,1181.87L611.907,2165.42C611.907,2217.12 653.88,2259.1 705.579,2259.1L2383.73,2259.1C2435.43,2259.1 2477.4,2217.12 2477.4,2165.42L2477.4,1181.87Z" style="fill:rgb(214,56,63);"/>
                </g>
                <g transform="matrix(0.717772,-0.414406,0.636869,1.10309,2559.78,418.273)">
                    <path d="M724.366,965.669C724.366,937.458 689.166,914.553 645.81,914.553C602.454,914.553 567.255,937.458 567.255,965.669L567.255,2796.73C567.255,2824.95 602.454,2847.85 645.81,2847.85C689.166,2847.85 724.366,2824.95 724.366,2796.73L724.366,965.669Z" style="fill:rgb(123,123,123);"/>
                </g>
                <g transform="matrix(1,0,0,1,3208.33,0)">
                    <g transform="matrix(1.16159,0,0,1.16159,-332.814,-303.708)">
                        <path d="M1577.85,261.458C2290.55,261.458 2869.18,840.084 2869.18,1552.79C2869.18,2265.49 2290.55,2844.12 1577.85,2844.12C865.141,2844.12 286.515,2265.49 286.515,1552.79C286.515,840.084 865.141,261.458 1577.85,261.458ZM1577.85,480.984C2169.39,480.984 2649.65,961.244 2649.65,1552.79C2649.65,2144.33 2169.39,2624.59 1577.85,2624.59C986.301,2624.59 506.041,2144.33 506.041,1552.79C506.041,961.244 986.301,480.984 1577.85,480.984Z" style="fill:white;"/>
                    </g>
                    <g transform="matrix(1.16159,0,0,1.27977,-192.049,-406.597)">
                        <path d="M1500,516.982C1500,495.272 1480.58,477.647 1456.66,477.647C1432.74,477.647 1413.33,495.272 1413.33,516.982L1413.33,1222.39C1413.33,1244.1 1432.74,1261.73 1456.66,1261.73C1480.58,1261.73 1500,1244.1 1500,1222.39L1500,516.982Z" style="fill:white;"/>
                    </g>
                    <g transform="matrix(1.16159,0,0,1.27977,-192.049,1180.61)">
                        <path d="M1500,516.982C1500,495.272 1480.58,477.647 1456.66,477.647C1432.74,477.647 1413.33,495.272 1413.33,516.982L1413.33,1222.39C1413.33,1244.1 1432.74,1261.73 1456.66,1261.73C1480.58,1261.73 1500,1244.1 1500,1222.39L1500,516.982Z" style="fill:white;"/>
                    </g>
                    <g transform="matrix(7.1127e-17,1.16159,-1.27977,7.8363e-17,3406.6,-192.049)">
                        <path d="M1500,516.982C1500,495.272 1480.58,477.647 1456.66,477.647C1432.74,477.647 1413.33,495.272 1413.33,516.982L1413.33,1222.39C1413.33,1244.1 1432.74,1261.73 1456.66,1261.73C1480.58,1261.73 1500,1244.1 1500,1222.39L1500,516.982Z" style="fill:white;"/>
                    </g>
                    <g transform="matrix(7.1127e-17,1.16159,-1.27977,7.8363e-17,1819.39,-192.049)">
                        <path d="M1500,516.982C1500,495.272 1480.58,477.647 1456.66,477.647C1432.74,477.647 1413.33,495.272 1413.33,516.982L1413.33,1222.39C1413.33,1244.1 1432.74,1261.73 1456.66,1261.73C1480.58,1261.73 1500,1244.1 1500,1222.39L1500,516.982Z" style="fill:white;"/>
                    </g>
                </g>
            </g>
        </g>
    </g>
</svg>
