<!DOCTYPE svg PUBLIC "-//W3C//DTD SVG 20010904//EN" "http://www.w3.org/TR/2001/REC-SVG-20010904/DTD/svg10.dtd">
<svg version="1.0" xmlns="http://www.w3.org/2000/svg" width="983px" height="640px" viewBox="0 0 9830 6400" preserveAspectRatio="xMidYMid meet">
<g id="layer101" fill="#000000" stroke="none">
 <path d="M0 3200 l0 -3200 4915 0 4915 0 0 3200 0 3200 -4915 0 -4915 0 0 -3200z"/>
 </g>
<g id="layer102" fill="#020092" stroke="none">
 <path d="M0 2150 l0 -2150 4915 0 4915 0 0 2150 0 2150 -4915 0 -4915 0 0 -2150z"/>
 </g>
<g id="layer103" fill="#b10120" stroke="none">
 <path d="M0 3220 l0 -1079 2398 -3 c1318 -2 3530 -2 4915 0 l2517 3 0 1079 0 1080 -4915 0 -4915 0 0 -1080z"/>
 </g>
<g id="layer104" fill="#fae50f" stroke="none">
 <path d="M4879 4268 c-168 -121 -539 -444 -539 -469 0 -11 83 -59 102 -59 8 0 75 50 149 111 289 238 303 249 330 249 36 0 463 -341 595 -475 120 -123 236 -265 294 -359 51 -84 124 -267 140 -353 11 -54 16 -63 34 -63 28 0 93 45 101 69 15 47 -76 299 -156 431 -112 186 -287 377 -525 575 -317 263 -441 363 -460 369 -14 4 -34 -3 -65 -26z"/>
 <path d="M4019 3799 c-138 -20 -255 -78 -360 -176 -220 -208 -259 -495 -99 -741 34 -53 128 -142 150 -142 4 0 7 47 5 104 -2 102 -3 105 -46 182 -44 79 -44 79 -44 180 0 89 3 106 27 152 41 79 86 129 161 179 94 63 169 85 287 87 87 1 101 -2 160 -30 90 -43 199 -113 305 -199 88 -70 235 -212 235 -226 0 -27 -319 -270 -430 -328 -113 -59 -166 -71 -303 -71 l-120 0 7 -56 c12 -100 34 -118 146 -118 186 2 393 103 642 313 126 107 161 131 185 131 10 0 77 -46 148 -102 327 -257 463 -326 661 -335 122 -6 234 12 309 49 71 36 176 120 215 172 46 61 103 173 121 236 18 67 16 224 -5 295 -27 92 -83 189 -145 254 -67 69 -208 144 -316 166 -95 20 -265 20 -265 1 0 -18 139 -146 158 -146 8 0 55 -14 106 -31 242 -81 343 -229 317 -465 -18 -153 -135 -296 -289 -354 -76 -29 -231 -30 -312 -2 -117 41 -244 120 -445 277 -97 76 -125 102 -125 117 0 25 184 191 312 282 155 110 152 102 77 177 l-40 40 -41 -23 c-49 -28 -183 -134 -299 -239 -48 -42 -98 -85 -113 -94 -26 -17 -27 -17 -79 22 -28 22 -108 91 -177 152 -125 113 -247 201 -350 253 -96 49 -231 72 -331 57z"/>
 <path d="M4099 3567 c-18 -12 -54 -48 -79 -79 -58 -72 -193 -323 -225 -417 -89 -261 -33 -541 143 -716 201 -200 559 -253 792 -117 25 15 80 60 122 100 l77 73 71 -66 c87 -79 142 -118 218 -152 50 -23 73 -27 193 -31 161 -5 218 5 326 57 125 61 230 169 293 303 33 69 37 93 16 85 -7 -3 -45 -15 -84 -26 -64 -19 -73 -25 -95 -64 -38 -64 -129 -144 -204 -180 -65 -31 -73 -32 -193 -32 -120 0 -128 1 -205 34 -109 46 -208 146 -280 279 -27 50 -52 92 -56 92 -3 0 -15 -19 -25 -42 -58 -130 -176 -268 -266 -312 -201 -97 -422 -65 -581 84 -78 73 -115 140 -138 250 -22 104 -23 174 -4 264 36 168 93 274 261 481 46 57 84 107 84 110 0 10 -83 45 -106 45 -12 0 -36 -10 -55 -23z"/>
 </g>

</svg>